<?xml version="1.0" standalone="no"?>
<svg xmlns:xlink="http://www.w3.org/1999/xlink" id="wave" style="transform:rotate(0deg); transition: 0.3s" viewBox="0 0 1440 490" version="1.1" xmlns="http://www.w3.org/2000/svg"><defs><linearGradient id="sw-gradient-0" x1="0" x2="0" y1="1" y2="0"><stop stop-color="rgba(0, 0, 0, 1)" offset="0%"/><stop stop-color="rgba(116.436, 80.169, 0, 1)" offset="100%"/></linearGradient></defs><path style="transform:translate(0, 0px); opacity:1" fill="url(#sw-gradient-0)" d="M0,147L60,130.7C120,114,240,82,360,81.7C480,82,600,114,720,122.5C840,131,960,114,1080,98C1200,82,1320,65,1440,122.5C1560,180,1680,310,1800,310.3C1920,310,2040,180,2160,130.7C2280,82,2400,114,2520,130.7C2640,147,2760,147,2880,130.7C3000,114,3120,82,3240,89.8C3360,98,3480,147,3600,163.3C3720,180,3840,163,3960,204.2C4080,245,4200,343,4320,375.7C4440,408,4560,376,4680,302.2C4800,229,4920,114,5040,106.2C5160,98,5280,196,5400,204.2C5520,212,5640,131,5760,114.3C5880,98,6000,147,6120,155.2C6240,163,6360,131,6480,163.3C6600,196,6720,294,6840,351.2C6960,408,7080,425,7200,367.5C7320,310,7440,180,7560,130.7C7680,82,7800,114,7920,155.2C8040,196,8160,245,8280,285.8C8400,327,8520,359,8580,375.7L8640,392L8640,490L8580,490C8520,490,8400,490,8280,490C8160,490,8040,490,7920,490C7800,490,7680,490,7560,490C7440,490,7320,490,7200,490C7080,490,6960,490,6840,490C6720,490,6600,490,6480,490C6360,490,6240,490,6120,490C6000,490,5880,490,5760,490C5640,490,5520,490,5400,490C5280,490,5160,490,5040,490C4920,490,4800,490,4680,490C4560,490,4440,490,4320,490C4200,490,4080,490,3960,490C3840,490,3720,490,3600,490C3480,490,3360,490,3240,490C3120,490,3000,490,2880,490C2760,490,2640,490,2520,490C2400,490,2280,490,2160,490C2040,490,1920,490,1800,490C1680,490,1560,490,1440,490C1320,490,1200,490,1080,490C960,490,840,490,720,490C600,490,480,490,360,490C240,490,120,490,60,490L0,490Z"/></svg>